<?xml version="1.0" encoding="utf-8"?>
<!-- Generator: Adobe Illustrator 18.1.1, SVG Export Plug-In . SVG Version: 6.00 Build 0)  -->
<!DOCTYPE svg PUBLIC "-//W3C//DTD SVG 1.1//EN" "http://www.w3.org/Graphics/SVG/1.1/DTD/svg11.dtd">
<svg version="1.1" id="Layer_1" xmlns:sketch="http://www.bohemiancoding.com/sketch/ns"
	 xmlns="http://www.w3.org/2000/svg" xmlns:xlink="http://www.w3.org/1999/xlink" x="0px" y="0px" width="100px" height="100px"
	 viewBox="-429 231 100 100" enable-background="new -429 231 100 100" xml:space="preserve">
<title>default_plugin</title>
<desc>Created with Sketch.</desc>
<path fill="#FF5500" d="M-404.4,293.1l1.4,1.2c4.8,4.3,10.8,7.8,17.7,7.8c3,0,8-1.2,8.6-5.1c0.6-3.8-3.3-4.2-6-4.8l-5.9-1.1
	c-11.5-2.2-20.4-9.3-18.3-22.6c3.2-20.3,23-31.6,41.2-31.6c9.5,0,17.9,2.4,25.3,7.5l-11.6,21.8c-4.7-3.6-10.1-6.4-16.6-6.4
	c-2.7,0-6.7,1-7.2,4.5c-0.5,3.2,3.2,3.6,5.4,4.2l6.6,1.6c12.4,2.9,20.6,9.9,18.4,24.4c-3.2,20.4-22.9,30.4-41,30.4
	c-10.5,0-22.3-2.9-30.9-7.8L-404.4,293.1z"/>
</svg>
